<?xml version="1.0" encoding="utf-8"?>
<!-- Generator: Adobe Illustrator 22.0.0, SVG Export Plug-In . SVG Version: 6.00 Build 0)  -->
<svg version="1.1" id="Layer_1" xmlns="http://www.w3.org/2000/svg" xmlns:xlink="http://www.w3.org/1999/xlink" x="0px" y="0px"
	 viewBox="0 0 20 20" style="enable-background:new 0 0 20 20;" xml:space="preserve">
<path d="M16.0029,9.5H5.0678l4.3189-5.1797C9.564,4.1079,9.5352,3.793,9.3232,3.6162C9.1104,3.4385,8.7949,3.4673,8.6191,3.6797
	l-5.0029,6C3.6016,9.6972,3.5968,9.7186,3.585,9.7374C3.5739,9.755,3.5615,9.7709,3.5529,9.7895
	C3.5476,9.8007,3.543,9.8113,3.5386,9.8229C3.5263,9.8551,3.5202,9.8871,3.5148,9.9206c-0.0032,0.0195-0.0067,0.038-0.0075,0.0577
	C3.5069,9.9859,3.5029,9.9923,3.5029,10c0,0.0043,0.0023,0.0079,0.0024,0.0122c0.0008,0.0333,0.0078,0.0644,0.0152,0.0969
	c0.0046,0.0205,0.0092,0.0399,0.0164,0.0599c0.0041,0.0114,0.006,0.0233,0.0109,0.0342c0.0128,0.0285,0.0319,0.0529,0.0502,0.0789
	c0.0084,0.0121,0.0109,0.0266,0.0206,0.0381l5,6C8.7178,16.4385,8.8599,16.5,9.0034,16.5c0.1128,0,0.2261-0.0381,0.3198-0.1162
	c0.2119-0.1768,0.2407-0.4922,0.064-0.7041L5.0708,10.5h10.9321c0.2764,0,0.5-0.2236,0.5-0.5S16.2793,9.5,16.0029,9.5z"/>
</svg>
