<?xml version="1.0" encoding="utf-8"?>
<!-- Generator: Adobe Illustrator 22.0.0, SVG Export Plug-In . SVG Version: 6.00 Build 0)  -->
<svg version="1.1" id="Layer_1" xmlns="http://www.w3.org/2000/svg" xmlns:xlink="http://www.w3.org/1999/xlink" x="0px" y="0px"
	 viewBox="0 0 20 20" style="enable-background:new 0 0 20 20;" xml:space="preserve">
<path d="M16.5,10H4.6982l4.2656-5.1157c0.2119-0.2544,0.1777-0.6328-0.0767-0.8452C8.6323,3.8281,8.2544,3.8618,8.042,4.1157
	l-5.0029,6c-0.0159,0.0191-0.0209,0.0425-0.034,0.0629c-0.02,0.0308-0.0373,0.061-0.051,0.0945
	c-0.0167,0.0402-0.0278,0.0795-0.0353,0.1215c-0.0059,0.033-0.0095,0.0645-0.0099,0.098c-0.0005,0.0438,0.0041,0.0851,0.013,0.128
	c0.0067,0.0326,0.0152,0.0631,0.0274,0.0945c0.0161,0.0417,0.0375,0.0792,0.0631,0.1169c0.0113,0.0168,0.015,0.0364,0.0282,0.0522
	l5,5.9995c0.1187,0.1426,0.2896,0.2158,0.4614,0.2158c0.1353,0,0.2715-0.0449,0.3838-0.1387
	c0.2544-0.2119,0.2886-0.5908,0.0767-0.8447L4.6992,11H16.5c0.2764,0,0.5-0.2236,0.5-0.5S16.7764,10,16.5,10z"/>
</svg>
