<svg xmlns="http://www.w3.org/2000/svg" viewBox="0 0 15 14.99968"><title>arrow-left-20px</title><path d="M17,9.50012H4.08673l5.29266-6.1748a.49969.49969,0,1,0-.75878-.65039l-6,7a.46724.46724,0,0,0-.02979.05316.48938.48938,0,0,0-.04248.06384c-.00549.012-.00916.02411-.01373.0365a.4802.4802,0,0,0-.01783.07764.49452.49452,0,0,0-.01306.07562c-.00024.00647-.00372.0119-.00372.01843s.00348.012.00372.01843a.49486.49486,0,0,0,.01306.07563.48008.48008,0,0,0,.01783.07763c.00457.01239.00824.02454.01373.0365a.48948.48948,0,0,0,.04248.06385.46724.46724,0,0,0,.02979.05316l6,7a.49969.49969,0,1,0,.75878-.65039L4.08673,10.50012H17a.5.5,0,0,0,0-1Z" transform="translate(-2.5 -2.50044)"/></svg>