<?xml version="1.0" encoding="utf-8"?>
<!-- Generator: Adobe Illustrator 22.0.0, SVG Export Plug-In . SVG Version: 6.00 Build 0)  -->
<svg version="1.1" id="Layer_1" xmlns="http://www.w3.org/2000/svg" xmlns:xlink="http://www.w3.org/1999/xlink" x="0px" y="0px"
	 viewBox="0 0 20 20" style="enable-background:new 0 0 20 20;" xml:space="preserve">
<path d="M16.4549,10.2034c0.0051-0.0114,0.0071-0.0237,0.0113-0.0356c0.0069-0.0192,0.0112-0.038,0.0157-0.0577
	c0.0074-0.0327,0.0147-0.0639,0.0156-0.0974C16.4976,10.0083,16.5,10.0045,16.5,10c0-0.008-0.0042-0.0146-0.0045-0.0225
	C16.4946,9.9581,16.4911,9.94,16.488,9.9208c-0.0054-0.0334-0.0112-0.0653-0.0236-0.0974C16.46,9.8116,16.4553,9.8006,16.45,9.7892
	c-0.0087-0.0186-0.0211-0.0344-0.0321-0.0519c-0.0118-0.0187-0.0165-0.0401-0.0311-0.0576l-5.0029-6
	c-0.1758-0.2114-0.4907-0.2397-0.7041-0.0635c-0.2119,0.1768-0.2407,0.4917-0.0635,0.7041L14.9351,9.5H4
	c-0.2764,0-0.5,0.2236-0.5,0.5s0.2236,0.5,0.5,0.5h10.9326l-4.3168,5.1797c-0.1768,0.2119-0.1479,0.5273,0.064,0.7041
	c0.0938,0.0781,0.207,0.1162,0.3198,0.1162c0.1431,0,0.2856-0.0615,0.3843-0.1797l5-6c0.0092-0.0111,0.0116-0.025,0.0197-0.0366
	C16.4222,10.2573,16.4419,10.2325,16.4549,10.2034z"/>
</svg>
