<?xml version="1.0" encoding="utf-8"?>
<!-- Generator: Adobe Illustrator 22.0.0, SVG Export Plug-In . SVG Version: 6.00 Build 0)  -->
<svg version="1.1" id="Layer_1" xmlns="http://www.w3.org/2000/svg" xmlns:xlink="http://www.w3.org/1999/xlink" x="0px" y="0px"
	 viewBox="0 0 20 20" style="enable-background:new 0 0 20 20;" xml:space="preserve">
<path d="M17.0815,10.6024c0.0055-0.0312,0.009-0.061,0.0095-0.0927c0.0007-0.0453-0.004-0.0882-0.0135-0.1325
	c-0.0066-0.0314-0.0148-0.0608-0.0264-0.0911c-0.0164-0.0425-0.0381-0.0807-0.0643-0.119
	c-0.0112-0.0165-0.0148-0.0358-0.0278-0.0515l-5-6c-0.2129-0.2539-0.5898-0.2876-0.8447-0.0767
	c-0.2549,0.2119-0.2891,0.5903-0.0771,0.8452L15.3002,10H3.5C3.2236,10,3,10.2236,3,10.5S3.2236,11,3.5,11h11.8018l-4.2657,5.1162
	c-0.2119,0.2539-0.1777,0.6328,0.0771,0.8447c0.1113,0.0938,0.248,0.1387,0.3838,0.1387c0.1719,0,0.3418-0.0732,0.4609-0.2158
	l5.0029-5.9995c0.0166-0.02,0.0219-0.0444,0.0355-0.0657c0.0186-0.0292,0.035-0.0576,0.0481-0.0891
	C17.0621,10.6876,17.0739,10.6464,17.0815,10.6024z"/>
</svg>
