<svg xmlns="http://www.w3.org/2000/svg" viewBox="0 0 15 14.99968"><title>arrow-right-20px</title><path d="M17.46521,10.17261a.48134.48134,0,0,0,.01825-.07935.493.493,0,0,0,.01288-.075c.00024-.00641.00366-.01172.00366-.01819s-.00342-.01178-.00366-.01819a.49317.49317,0,0,0-.01288-.07495.481.481,0,0,0-.01825-.07934c-.00452-.01215-.00812-.024-.01355-.03571a.4965.4965,0,0,0-.041-.062.46532.46532,0,0,0-.03076-.055l-6-7a.49987.49987,0,0,0-.75927.65039l5.29223,6.1748H3a.5.5,0,0,0,0,1H15.91284l-5.29223,6.17481a.49987.49987,0,1,0,.75927.65039l6-7a.46465.46465,0,0,0,.03076-.055.49576.49576,0,0,0,.041-.062C17.45709,10.19659,17.46069,10.18475,17.46521,10.17261Z" transform="translate(-2.5 -2.50044)"/></svg>