<?xml version="1.0" encoding="utf-8"?>
<!-- Generator: Adobe Illustrator 22.0.0, SVG Export Plug-In . SVG Version: 6.00 Build 0)  -->
<svg version="1.1" id="Layer_1" xmlns="http://www.w3.org/2000/svg" xmlns:xlink="http://www.w3.org/1999/xlink" x="0px" y="0px"
	 viewBox="0 0 20 20" style="enable-background:new 0 0 20 20;" xml:space="preserve">
<g>
	<path d="M5,7.0001h10c0.5527,0,1-0.4478,1-1s-0.4473-1-1-1H5c-0.5522,0-1,0.4478-1,1S4.4478,7.0001,5,7.0001z"/>
	<path d="M15,13.0001H5c-0.5522,0-1,0.4473-1,1s0.4478,1,1,1h10c0.5527,0,1-0.4473,1-1S15.5527,13.0001,15,13.0001z"/>
	<path d="M15,9.0001H5c-0.5522,0-1,0.4478-1,1s0.4478,1,1,1h10c0.5527,0,1-0.4478,1-1S15.5527,9.0001,15,9.0001z"/>
</g>
</svg>
