<?xml version="1.0" encoding="utf-8"?>
<!-- Generator: Adobe Illustrator 25.3.0, SVG Export Plug-In . SVG Version: 6.00 Build 0)  -->
<svg version="1.1" id="Layer_2" xmlns="http://www.w3.org/2000/svg" xmlns:xlink="http://www.w3.org/1999/xlink" x="0px" y="0px"
	 viewBox="0 0 20 20" style="enable-background:new 0 0 20 20;" xml:space="preserve">
<g>
	<path d="M12.5011,7.4461c-0.5679,0-1.0882,0.2-1.4749,0.5274c-0.3942,0.3333-0.6555,0.8035-0.6855,1.3371
		c-0.0302,0.5478,0.1896,1.0571,0.5766,1.4347c0.3939,0.3841,0.9558,0.6251,1.5838,0.6251c0.6279,0,1.1886-0.241,1.5829-0.6251
		c0.3866-0.3776,0.607-0.887,0.5771-1.4353c-0.0302-0.5331-0.2916-1.0033-0.6855-1.3366
		C13.5887,7.6461,13.0683,7.4461,12.5011,7.4461z"/>
	<path d="M17.9531,9.2542c-0.0943-0.6632-0.3238-1.2855-0.6771-1.8527c-0.3231-0.5212-0.7396-0.9775-1.2349-1.3616l0.0011-0.0009
		l-4.9982-3.8377c-0.0045-0.0034-0.0082-0.007-0.013-0.0102c-0.3279-0.2518-0.8794-0.2509-1.2401,0.0014
		C9.4264,2.4476,9.3847,2.8696,9.7092,3.1357L9.7078,3.137l2.0847,1.6952l-6.354,0.0068H5.4301
		C4.9049,4.8396,4.4,5.1842,4.3001,5.6196c-0.1027,0.4436,0.254,0.8116,0.8001,0.8136l-0.0009,0.002L8.3199,6.429L2.573,10.8402
		c-0.0074,0.0054-0.0152,0.0111-0.022,0.0164c-0.5421,0.4151-0.7174,1.1054-0.3759,1.5423c0.3465,0.4442,1.0834,0.445,1.6312,0.0026
		l3.1365-2.567c0,0-0.0457,0.3465-0.042,0.5546c0.0037,0.2088,0.0702,0.6146,0.1702,0.9315c0.21,0.6708,0.5661,1.2914,1.0616,1.8383
		c0.5086,0.5622,1.1348,1.0137,1.8581,1.3343c0.7602,0.3367,1.584,0.5083,2.4397,0.5068c0.8542-0.0011,1.678-0.1761,2.4383-0.5153
		c0.7233-0.3237,1.349-0.7772,1.8566-1.3397c0.4953-0.5491,0.8509-1.1709,1.0614-1.8416c0.1059-0.339,0.1727-0.683,0.1996-1.0282
		C18.0124,9.9352,18.0013,9.5945,17.9531,9.2542z M15.6506,10.4655c-0.1433,0.3937-0.3745,0.7622-0.6903,1.0839
		c-0.6463,0.6584-1.551,1.0318-2.53,1.0338c-0.9804,0.0017-1.8852-0.3683-2.5314-1.0255c-0.3158-0.3203-0.5478-0.6889-0.6908-1.0814
		c-0.1403-0.3858-0.1948-0.7953-0.1586-1.2084c0.0341-0.4038,0.1544-0.7891,0.3463-1.1376c0.1885-0.3426,0.4481-0.6522,0.7688-0.914
		c0.6282-0.512,1.4279-0.789,2.2644-0.7902c0.8373-0.0011,1.6365,0.2735,2.2653,0.7838c0.32,0.2607,0.5794,0.5692,0.7679,0.9112
		c0.1928,0.3483,0.3121,0.732,0.3476,1.137C15.8452,9.6704,15.7908,10.0794,15.6506,10.4655z"/>
</g>
</svg>
