<?xml version="1.0" encoding="utf-8"?>
<!-- Generator: Adobe Illustrator 25.3.0, SVG Export Plug-In . SVG Version: 6.00 Build 0)  -->
<svg version="1.1" id="Layer_1" xmlns="http://www.w3.org/2000/svg" xmlns:xlink="http://www.w3.org/1999/xlink" x="0px" y="0px"
	 viewBox="0 0 20 20" style="enable-background:new 0 0 20 20;" xml:space="preserve">
<style type="text/css">
	.st0{fill:#181616;}
</style>
<g>
	<path class="st0" d="M17.4608,4.9702H4.2779C4.6349,5.3274,4.6744,5.7674,4.669,6.2631C4.6658,6.8626,4.6568,7.428,4.6575,8.0109
		C4.6575,8.06,4.6363,8.1275,4.7019,8.1482c0.0488,0.0154,0.0775-0.0339,0.1031-0.0705C5.8492,6.5942,8.3775,6.6912,9.473,8.3803
		c1.2129,1.8341,1.1781,5.0525-0.4579,6.6197h2.1166c-0.7766-0.9479-0.8292-2.0222-0.418-3.1255
		c0.2095-0.5651,0.7072-0.8409,1.2216-1.0688c0.4543-0.2013,0.9349-0.2949,1.4258-0.3723c0.5422-0.0854,1.1085-0.0963,1.6102-0.3649
		c0.2323-0.1243,0.4295-0.2945,0.4019-0.5988c-0.0266-0.2928-0.213-0.4611-0.4768-0.5379c-0.5182-0.151-1.0404-0.2043-1.568-0.0354
		c-0.1926,0.0616-0.3557,0.1617-0.4651,0.3334c-0.0688,0.1079-0.1526,0.1459-0.2787,0.1446
		c-0.5612-0.006-1.1226-0.0073-1.6838-0.0001c-0.1767,0.0023-0.223-0.0577-0.1837-0.23c0.5297-2.3932,3.6531-2.4706,5.4875-1.6917
		c0.7993,0.3406,1.2232,0.9983,1.2344,1.8894c0.0118,0.9318-0.0114,1.8641,0.0063,2.7958c0.0234,1.1143-0.2489,2.1135-1.1215,2.8622
		h1.137C17.7574,15,18,14.7543,18,14.454V5.5162C18,5.2159,17.7574,4.9702,17.4608,4.9702z"/>
	<path class="st0" d="M2.5483,10.6038C2.5496,8.7584,2.5513,6.818,2.5529,4.9702H2.5392C2.2426,4.9702,2,5.2159,2,5.5162v8.9378
		C2,14.7543,2.2426,15,2.5392,15h1.2989C2.3331,13.9385,2.5457,12.235,2.5483,10.6038z"/>
	<path class="st0" d="M7.2668,9.1758C6.5986,8.7284,5.383,8.8959,4.9746,9.8182c-0.3989,0.907-0.3653,1.8457-0.1587,2.7822
		c0.1688,0.7646,0.7706,1.2642,1.465,1.2856c0.8179,0.0253,1.3976-0.385,1.6686-1.1721c0.2112-0.6136,0.2284-1.2449,0.1717-1.8815
		C8.0616,10.1638,7.8121,9.5903,7.2668,9.1758z"/>
	<path class="st0" d="M15.226,11.4675c-0.1442,0.0606-0.291,0.1155-0.4386,0.1672c-0.4666,0.1636-0.9609,0.2174-1.4313,0.3654
		c-0.3593,0.113-0.6698,0.2786-0.8009,0.683c-0.1523,0.47,0.0305,1.0491,0.4187,1.219c0.545,0.2384,1.5853,0.1387,2.0691-0.5393
		c0.2912-0.4082,0.3745-0.8638,0.3501-1.2923c0-0.2034-0.0012-0.3471,0.0004-0.4908C15.3948,11.4523,15.3441,11.4179,15.226,11.4675
		z"/>
</g>
</svg>
