<?xml version="1.0" encoding="utf-8"?>
<!-- Generator: Adobe Illustrator 25.3.0, SVG Export Plug-In . SVG Version: 6.00 Build 0)  -->
<svg version="1.1" id="Layer_4" xmlns="http://www.w3.org/2000/svg" xmlns:xlink="http://www.w3.org/1999/xlink" x="0px" y="0px"
	 viewBox="0 0 20 20" style="enable-background:new 0 0 20 20;" xml:space="preserve">
<path d="M14.0107,5.8335c0.0118-5.1563-7.0335-5.1563-7.0215-0.0001c0,2.1306,1.2943,4.6564,2.9895,5.1016
	c-0.1053,1.5424-0.7618,2.1196-1.5847,2.8189c-0.8765,0.7441-1.8696,1.5879-2.3789,3.625C5.9325,17.6882,6.1806,18.0046,6.5005,18
	c0.2241,0,0.4277-0.1514,0.4844-0.3789c0.4316-1.7246,1.2578-2.4268,2.0566-3.1055c0.8968-0.7625,1.8118-1.5652,1.9349-3.5686
	C12.6933,10.5353,14.0107,7.9827,14.0107,5.8335z M10.5,9.9893c-2.5106-0.2098-3.9751-7.0472,0.0001-6.9785
	C14.4756,2.9423,13.0097,9.781,10.5,9.9893z"/>
</svg>
