<?xml version="1.0" encoding="utf-8"?>
<!-- Generator: Adobe Illustrator 25.3.0, SVG Export Plug-In . SVG Version: 6.00 Build 0)  -->
<svg version="1.1" id="Layer_1" xmlns="http://www.w3.org/2000/svg" xmlns:xlink="http://www.w3.org/1999/xlink" x="0px" y="0px"
	 viewBox="0 0 20 20" style="enable-background:new 0 0 20 20;" xml:space="preserve">
<g>
	<path d="M16.5,16h-6c-0.2764,0-0.5-0.2236-0.5-0.5s0.2236-0.5,0.5-0.5h6c0.2764,0,0.5,0.2236,0.5,0.5S16.7764,16,16.5,16z"/>
</g>
<g>
	<path d="M4.5,16c-0.1353,0-0.27-0.0547-0.3687-0.1621c-0.1865-0.2031-0.1729-0.5195,0.0308-0.7061L9.7603,10L4.1621,4.8687
		C3.9585,4.6821,3.9448,4.3657,4.1313,4.1621C4.3179,3.959,4.6338,3.9448,4.8379,4.1313l6,5.5C10.9414,9.7261,11,9.8599,11,10
		s-0.0586,0.2739-0.1621,0.3687l-6,5.4995C4.7417,15.957,4.6206,16,4.5,16z"/>
</g>
</svg>
