<?xml version="1.0" encoding="utf-8"?>
<!-- Generator: Adobe Illustrator 22.0.0, SVG Export Plug-In . SVG Version: 6.00 Build 0)  -->
<svg version="1.1" id="Layer_1" xmlns="http://www.w3.org/2000/svg" xmlns:xlink="http://www.w3.org/1999/xlink" x="0px" y="0px"
	 viewBox="0 0 20 20" style="enable-background:new 0 0 20 20;" xml:space="preserve">
<path d="M10.7,10l4.6-4.6c0.2-0.2,0.2-0.5,0-0.7s-0.5-0.2-0.7,0L10,9.3L5.4,4.6c-0.2-0.2-0.5-0.2-0.7,0s-0.2,0.5,0,0.7L9.3,10
	l-4.6,4.6c-0.2,0.2-0.2,0.5,0,0.7c0.1,0.1,0.2,0.1,0.4,0.1s0.3,0,0.4-0.1l4.6-4.6l4.6,4.6c0.1,0.1,0.2,0.1,0.4,0.1s0.3,0,0.4-0.1
	c0.2-0.2,0.2-0.5,0-0.7L10.7,10z"/>
</svg>
