<?xml version="1.0" encoding="utf-8"?>
<!-- Generator: Adobe Illustrator 22.0.0, SVG Export Plug-In . SVG Version: 6.00 Build 0)  -->
<svg version="1.1" xmlns="http://www.w3.org/2000/svg" xmlns:xlink="http://www.w3.org/1999/xlink" x="0px" y="0px"
	 viewBox="0 0 20 20" style="enable-background:new 0 0 20 20;" xml:space="preserve">
<style type="text/css">
	.st0{display:none;}
	.st1{display:inline;opacity:0.21;fill:#727272;}
	.st2{opacity:0.27;}
	.st3{display:inline;}
	.st4{opacity:0.48;}
	.st5{display:inline;fill:none;stroke:#000000;stroke-width:0.5;stroke-miterlimit:10;}
</style>
<g id="Layer_1" class="st0">
	<circle class="st1" cx="10" cy="10" r="10"/>
	<circle cx="10" cy="6" r="4"/>
	<circle class="st2" cx="10" cy="6" r="4"/>
	<path class="st3" d="M12.0625,11.0625c-1.6569,0-3-1.3431-3-3c0-0.7955,0.3151-1.5138,0.8204-2.0507C7.7292,6.0752,6,7.8309,6,10
		c0,2.2092,1.7908,4,4,4c2.0838,0,3.7756-1.5992,3.9631-3.6341C13.4444,10.7946,12.788,11.0625,12.0625,11.0625z"/>
	<circle class="st4" cx="12.0625" cy="8.0625" r="3"/>
	<g class="st3">
		<path d="M13.2188,17.0938c-0.176-0.4586-0.0002-0.5653,0.1436-0.7041l0.4273-0.4204l0.8545-0.8408
			c0.5791-0.5511,1.1501-1.1104,1.7423-1.6483c1.1784-1.082,2.3612-2.1596,3.6136-3.1677
			c-1.0081,1.2523-2.0857,2.4351-3.1677,3.6136c-0.538,0.5922-1.0972,1.1632-1.6483,1.7423l-0.8408,0.8545l-0.4204,0.4273
			C13.784,17.0939,13.6773,17.2698,13.2188,17.0938z"/>
	</g>
	<g class="st3">
		<path d="M0.625,14.625c-0.1999-0.5541,0.0921-0.6162,0.2529-0.8096l0.5384-0.5241c0.3621-0.3462,0.7301-0.6866,1.1056-1.0194
			c0.7594-0.6573,1.5191-1.3143,2.3531-1.8969c-0.5827,0.834-1.2396,1.5937-1.8969,2.3531
			c-0.3328,0.3755-0.6732,0.7435-1.0194,1.1056l-0.5241,0.5384C1.2412,14.5329,1.1791,14.8249,0.625,14.625z"/>
	</g>
	<g class="st3">
		<path d="M5.0156,5.25c-0.203-0.4316-0.0542-0.5112,0.0625-0.623l0.3462-0.3393L6.1168,3.609
			c0.471-0.4431,0.9339-0.8942,1.4181-1.3241C8.4972,1.419,9.4638,0.5575,10.5-0.2344C9.7081,0.8018,8.8466,1.7685,7.9807,2.7307
			C7.5508,3.2149,7.0997,3.6778,6.6566,4.1488L5.978,4.8412L5.6386,5.1875C5.5269,5.3042,5.4472,5.453,5.0156,5.25z"/>
	</g>
	<circle class="st3" cx="11.5" cy="4.5" r="0.5"/>
	<circle class="st3" cx="15.5" cy="10.5" r="0.5"/>
	<circle class="st5" cx="15" cy="5" r="0.8125"/>
	<circle class="st5" cx="8.0625" cy="17.0625" r="0.8125"/>
	<circle class="st5" cx="4.0625" cy="7.0625" r="0.8125"/>
	<circle class="st3" cx="5.5" cy="13.5" r="0.5"/>
</g>
<g id="Layer_1_copy_2" class="st0">
	<circle class="st1" cx="10" cy="10" r="10"/>
	<circle cx="10" cy="6" r="4"/>
	<circle class="st2" cx="10" cy="6" r="4"/>
	<circle class="st3" cx="10" cy="6.125" r="2"/>
	<path d="M25.0181,18.0783c-4.863,0-6.7065-4.7033-9.9292-4.7033c-4.6162,0-4.9646,3.9194-7.8389,3.7452L9.6017,23.13
		c0,0,11.584,1.829,11.8453,1.7419s11.2357-5.4001,11.2357-5.4001S29.881,18.0783,25.0181,18.0783z"/>
	<g class="st3">
		<path d="M20,16.1612V14.753c-1.7174-1.1353-2.9483-2.7217-4.6423-2.7217c-1.6783,0-2.6655,0.6337-3.4523,1.325
			c1.727,1.38,3.6946,2.76,6.5483,2.76C18.9934,16.1162,19.5043,16.1347,20,16.1612z"/>
		<path d="M20,16.6943c-0.5262-0.03-1.0717-0.0498-1.6485-0.0498c-5.7069,0-7.8704-5.5195-11.6523-5.5195
			c-3.7531,0-5.1028,2.2057-6.6992,3.4941V20h20V16.6943z"/>
	</g>
	<rect x="9.5" y="8.5" class="st3" width="1" height="1"/>
	<rect x="9.5" y="2.5" class="st3" width="1" height="1"/>
	<rect x="6.5" y="5.5" transform="matrix(-1.836970e-16 1 -1 -1.836970e-16 13 -1)" class="st3" width="1" height="1"/>
	<rect x="12.5" y="5.5" transform="matrix(-1.836970e-16 1 -1 -1.836970e-16 19 -7)" class="st3" width="1" height="1"/>
	<rect x="7.3787" y="7.6213" transform="matrix(0.7071 0.7071 -0.7071 0.7071 8.0503 -3.1924)" class="st3" width="1" height="1"/>
	<rect x="11.6213" y="3.3787" transform="matrix(0.7071 0.7071 -0.7071 0.7071 6.2929 -7.435)" class="st3" width="1" height="1"/>
	
		<rect x="7.3787" y="3.3787" transform="matrix(-0.7071 0.7071 -0.7071 -0.7071 16.1924 1.0503)" class="st3" width="1" height="1"/>
	
		<rect x="11.6213" y="7.6213" transform="matrix(-0.7071 0.7071 -0.7071 -0.7071 26.435 5.2929)" class="st3" width="1" height="1"/>
</g>
<g id="Layer_1_copy_3" class="st0">
	<g class="st3">
		<circle cx="10" cy="6" r="3"/>
		<path d="M15.9523,11.7451c-1.6783,0-2.6655,0.6337-3.4523,1.325c1.727,1.38,3.6946,2.76,6.5483,2.76
			c0.5397,0,1.0506,0.0185,1.5463,0.045v-1.4082C18.8772,13.3315,17.6463,11.7451,15.9523,11.7451z"/>
		<path d="M6.6992,11.125c-3.7531,0-5.1028,2.2057-6.6992,3.4941V20h20v-3.3057c-0.5262-0.03-1.0717-0.0498-1.6485-0.0498
			C12.6446,16.6445,10.4811,11.125,6.6992,11.125z"/>
	</g>
</g>
<g id="Layer_1_copy_4">
	<g>
		<path d="M10,9c1.6569,0,3-1.3432,3-3c0-1.6569-1.3431-3-3-3C8.3432,3,7,4.3431,7,6C7,7.6568,8.3432,9,10,9z M10,4
			c1.1028,0,2,0.8972,2,2s-0.8972,2-2,2S8,7.1028,8,6S8.8972,4,10,4z"/>
		<path d="M14.625,13c0.5146,0,0.9775,0.2266,1.6182,0.5391c0.842,0.4111,1.979,0.9576,3.7568,1.1611v-1.0054
			c-1.5411-0.1921-2.5195-0.6644-3.3174-1.0541C15.9785,12.2969,15.3701,12,14.625,12c-1.1084,0-2.0146,0.6484-2.8135,1.2197
			c-0.1559,0.1115-0.309,0.2136-0.4627,0.3177C9.72,12.2278,8.2631,11,6.5,11c-2.7464,0-4.5531,1.8956-6.5,3.5334v1.2897
			c0.4719-0.3703,0.9249-0.7603,1.3698-1.1452C2.9612,13.3008,4.4644,12,6.5,12c1.3445,0,2.5923,1.005,4.0372,2.1687
			c1.9227,1.5486,4.3157,3.4758,7.8143,3.4758c0.5016,0,1.0223,0.0157,1.6279,0.0496L20,17.6946v-1.0002
			c-0.5262-0.03-1.0717-0.0498-1.6485-0.0498c-2.6077,0-4.5143-1.1795-6.1799-2.4595c0.0742-0.0523,0.1472-0.0986,0.222-0.1518
			C13.1357,13.502,13.8369,13,14.625,13z"/>
	</g>
</g>
<g id="Layer_1_copy" class="st0">
	<g class="st3">
		<path d="M1.4346,14.3721l0.5242-0.5383c0.3462-0.3622,0.6865-0.7301,1.0193-1.1057c0.6573-0.7593,1.3143-1.5191,1.8969-2.3531
			c-0.834,0.5826-1.5938,1.2396-2.3531,1.8969c-0.3755,0.3328-0.7435,0.6732-1.1057,1.0193l-0.5383,0.5242
			c-0.1608,0.1934-0.4528,0.2555-0.2529,0.8096C1.1791,14.8249,1.2412,14.5328,1.4346,14.3721z"/>
		<circle cx="4.0625" cy="7.0625" r="0.8125"/>
		<circle cx="3.5" cy="2.5" r="0.5"/>
		<circle cx="16.5" cy="17.5" r="0.5"/>
		<circle cx="15.5" cy="10.5" r="0.5"/>
		<circle cx="15" cy="5" r="0.8125"/>
		<circle cx="18.5" cy="2.5" r="0.5"/>
		<path d="M6.1168,3.609L5.4244,4.2877L5.0782,4.627C4.9614,4.7388,4.8126,4.8184,5.0156,5.25
			c0.4316,0.2031,0.5112,0.0542,0.623-0.0626L5.978,4.8412l0.6786-0.6924c0.4431-0.471,0.8942-0.9339,1.3242-1.4181
			C8.7794,1.8431,9.5688,0.9462,10.3088,0h-0.0962C9.2864,0.728,8.4056,1.5014,7.5349,2.2849
			C7.0507,2.7148,6.5878,3.166,6.1168,3.609z"/>
		<path d="M14.6442,15.1285l-0.8546,0.8408l-0.4272,0.4204c-0.1438,0.1387-0.3196,0.2455-0.1436,0.704
			c0.4586,0.176,0.5653,0.0002,0.704-0.1436l0.4204-0.4272l0.8408-0.8546c0.5511-0.579,1.1104-1.15,1.6484-1.7423
			c1.082-1.1784,2.1596-2.3612,3.1677-3.6135c-1.2523,1.0081-2.4351,2.0857-3.6135,3.1677
			C15.7942,14.0182,15.2232,14.5774,14.6442,15.1285z"/>
		<circle cx="11.5" cy="4.5" r="0.5"/>
		<circle cx="8.0625" cy="17.0625" r="0.8125"/>
		<circle cx="5.5" cy="13.5" r="0.5"/>
		<circle cx="2.5" cy="18.5" r="0.5"/>
		<path d="M12.0625,11.0625c-1.6569,0-3-1.3431-3-3c0-0.7955,0.3151-1.5138,0.8204-2.0507C7.7292,6.0752,6,7.8309,6,10
			c0,2.2092,1.7908,4,4,4c2.0838,0,3.7756-1.5992,3.9631-3.6341C13.4444,10.7946,12.788,11.0625,12.0625,11.0625z"/>
	</g>
</g>
</svg>
