<?xml version="1.0" encoding="utf-8"?>
<!-- Generator: Adobe Illustrator 22.0.0, SVG Export Plug-In . SVG Version: 6.00 Build 0)  -->
<svg version="1.1" id="Layer_1" xmlns="http://www.w3.org/2000/svg" xmlns:xlink="http://www.w3.org/1999/xlink" x="0px" y="0px"
	 viewBox="0 0 20 20" style="enable-background:new 0 0 20 20;" xml:space="preserve">
<g>
	<path d="M11.6823,8.6708c-0.5212,0-0.9326,0.4572-0.9326,1.0149c0,0.5577,0.4206,1.0148,0.9326,1.0148
		c0.5211,0,0.9326-0.4572,0.9326-1.0148C12.6149,9.128,12.2034,8.6708,11.6823,8.6708z"/>
	<path d="M8.3452,8.6708c-0.5212,0-0.9326,0.4572-0.9326,1.0149c0,0.5577,0.4205,1.0148,0.9326,1.0148
		c0.5211,0,0.9326-0.4572,0.9326-1.0148C9.2869,9.128,8.8663,8.6708,8.3452,8.6708z"/>
	<path d="M16.1257,1H3.8743C2.8411,1,2,1.8411,2,2.8834v12.3611c0,1.0423,0.8411,1.8834,1.8743,1.8834h10.368l-0.4846-1.6914
		l1.1703,1.088l1.1063,1.024L18,19.2857V2.8834C18,1.8411,17.1589,1,16.1257,1z M12.5966,12.9406c0,0-0.3291-0.3931-0.6034-0.7405
		c1.1977-0.3383,1.6548-1.088,1.6548-1.088c-0.3749,0.2469-0.7314,0.4206-1.0515,0.5394c-0.4572,0.192-0.896,0.32-1.3257,0.3931
		c-0.8777,0.1646-1.6823,0.1189-2.368-0.0092c-0.5211-0.1005-0.9691-0.2468-1.344-0.3931C7.3486,11.56,7.12,11.4594,6.8914,11.3314
		c-0.0274-0.0182-0.0549-0.0274-0.0823-0.0457c-0.0183-0.0092-0.0274-0.0182-0.0366-0.0274
		c-0.1646-0.0914-0.256-0.1555-0.256-0.1555s0.4389,0.7314,1.6,1.0789c-0.2743,0.3474-0.6125,0.7589-0.6125,0.7589
		c-2.0206-0.064-2.7886-1.3897-2.7886-1.3897c0-2.944,1.3165-5.3303,1.3165-5.3303c1.3166-0.9874,2.5692-0.96,2.5692-0.96
		l0.0914,0.1097C7.0469,5.8457,6.288,6.568,6.288,6.568s0.2011-0.1097,0.5394-0.2651c0.9783-0.4297,1.7554-0.5486,2.0754-0.576
		c0.0549-0.0092,0.1006-0.0183,0.1555-0.0183c0.5577-0.0731,1.1886-0.0914,1.8469-0.0182c0.8686,0.1005,1.8011,0.3566,2.752,0.8777
		c0,0-0.7223-0.6857-2.2766-1.1611l0.128-0.1463c0,0,1.2526-0.0274,2.5692,0.96c0,0,1.3166,2.3863,1.3166,5.3303
		C15.3943,11.5508,14.6171,12.8766,12.5966,12.9406z"/>
</g>
</svg>
