<?xml version="1.0" encoding="utf-8"?>
<!-- Generator: Adobe Illustrator 22.0.0, SVG Export Plug-In . SVG Version: 6.00 Build 0)  -->
<svg version="1.1" id="Layer_1" xmlns="http://www.w3.org/2000/svg" xmlns:xlink="http://www.w3.org/1999/xlink" x="0px" y="0px"
	 viewBox="0 0 20 20" style="enable-background:new 0 0 20 20;" xml:space="preserve">
<style type="text/css">
	.st0{fill-rule:evenodd;clip-rule:evenodd;fill:#181616;}
</style>
<path class="st0" d="M9.9994,1C5.0299,1,1,5.0294,1,10.0005c0,3.976,2.5785,7.3493,6.1552,8.5395
	c0.45,0.0825,0.6143-0.1953,0.6143-0.4338c0-0.2137-0.0078-0.7796-0.0122-1.5307c-2.5035,0.5439-3.0317-1.2064-3.0317-1.2064
	c-0.4092-1.0397-0.9993-1.3165-0.9993-1.3165c-0.8171-0.5584,0.0618-0.5471,0.0618-0.5471
	c0.9032,0.0636,1.3785,0.9275,1.3785,0.9275c0.8028,1.3753,2.1064,0.9782,2.6192,0.7478c0.0818-0.5816,0.3143-0.9782,0.5714-1.2032
	c-1.9985-0.2271-4.0995-0.9993-4.0995-4.4481c0-0.9825,0.3507-1.7859,0.9264-2.415C5.0917,6.8868,4.7828,5.9717,5.2724,4.7326
	c0,0,0.7557-0.242,2.4749,0.9226c0.7179-0.1996,1.4878-0.2995,2.2532-0.3029c0.7643,0.0035,1.5342,0.1033,2.2532,0.3029
	c1.7182-1.1646,2.4725-0.9226,2.4725-0.9226c0.491,1.2391,0.1821,2.1541,0.0896,2.3818c0.5768,0.6291,0.9251,1.4325,0.9251,2.415
	c0,3.4574-2.1043,4.2182-4.1092,4.4411c0.3232,0.2779,0.611,0.8271,0.611,1.6667c0,1.2032-0.0111,2.1739-0.0111,2.469
	c0,0.2407,0.1621,0.5207,0.6189,0.4328C16.4236,17.3465,19,13.9754,19,10.0005C19,5.0294,14.9701,1,9.9994,1z"/>
</svg>
