<?xml version="1.0" encoding="utf-8"?>
<!-- Generator: Adobe Illustrator 25.3.0, SVG Export Plug-In . SVG Version: 6.00 Build 0)  -->
<svg version="1.1" id="Layer_3" xmlns="http://www.w3.org/2000/svg" xmlns:xlink="http://www.w3.org/1999/xlink" x="0px" y="0px"
	 viewBox="0 0 20 20" enable-background="new 0 0 20 20" xml:space="preserve">
<path d="M16.7883,17c-0.0002-1.6491-0.0002-3.2555-0.0002-4.8894c-2.2795,0-4.5381,0-6.7881,0s-4.5086,0-6.7881,0
	c0,1.6339,0,3.2403-0.0002,4.8894c0.6142,0,2.9913,0,2.9913,0c0-0.604,0-1.212,0-1.8503c1.275,0,2.5343,0,3.7971,0s2.522,0,3.7971,0
	c0,0.6382,0,1.2463,0,1.8503C13.7971,17,16.1741,17,16.7883,17z"/>
<path d="M8.3789,8.3081c-1.0182,0-2.0062,0-3.0533,0c0,1.012,0,1.9689,0,2.989c1.551,0,3.1085,0,4.6744,0s3.1235,0,4.6744,0
	c0-1.0201,0-1.9771,0-2.989c-1.0471,0-2.0351,0-3.0533,0c0.0001-0.2934,0.0001-0.5289,0.0001-0.8478c1.1871,0,2.343,0,3.5192,0
	c0-1.0412,0-1.998,0-3.0439c-1.1945,0-2.3491,0-3.5227,0V3C11.0842,3,10.5399,3,10,3S8.9158,3,8.3823,3v1.4164
	c-1.1736,0-2.3282,0-3.5227,0c0,1.0459,0,2.0027,0,3.0439c1.1761,0,2.3321,0,3.5192,0C8.3788,7.7792,8.3788,8.0147,8.3789,8.3081z"
	/>
</svg>
