<?xml version="1.0" encoding="utf-8"?>
<!-- Generator: Adobe Illustrator 22.0.0, SVG Export Plug-In . SVG Version: 6.00 Build 0)  -->
<svg version="1.1" id="Layer_1" xmlns="http://www.w3.org/2000/svg" xmlns:xlink="http://www.w3.org/1999/xlink" x="0px" y="0px"
	 viewBox="0 0 20 20" style="enable-background:new 0 0 20 20;" xml:space="preserve">
<path d="M17.291,8.5933l-7.0005-5c-0.0049-0.0035-0.0108-0.0038-0.0157-0.0071c-0.0302-0.0201-0.0635-0.0306-0.0968-0.0435
	c-0.0278-0.0108-0.0539-0.0255-0.0827-0.0309c-0.0327-0.0065-0.0655-0.0028-0.0989-0.0026c-0.0303,0.0003-0.06-0.0034-0.0897,0.0023
	C9.8756,3.5173,9.8473,3.5328,9.8174,3.5448c-0.0313,0.0125-0.0626,0.0221-0.091,0.0408C9.7211,3.5892,9.7147,3.5895,9.7095,3.5933
	l-7,5C2.4849,8.7534,2.4326,9.0659,2.5933,9.2905C2.6909,9.4272,2.8442,9.5,3.0005,9.5c0.1006,0,0.2021-0.0303,0.29-0.0933
	l0.7124-0.5089v7.5876C4.0027,16.4906,4,16.4948,4,16.5C4,16.7764,4.2236,17,4.5,17h11c0.2764,0,0.5-0.2236,0.5-0.5V8.9003
	l0.709,0.5065C16.7979,9.4697,16.8994,9.5,17,9.5c0.1553,0,0.3096-0.0728,0.4072-0.2095
	C17.5674,9.0659,17.5156,8.7534,17.291,8.5933z M9,12h2v4H9V12z M15,16h-3v-4.5c0-0.2764-0.2236-0.5-0.5-0.5h-3
	C8.2236,11,8,11.2236,8,11.5V16H5.0029V8.1836L10,4.6143l5,3.5717V16z"/>
</svg>
