<?xml version="1.0" encoding="utf-8"?>
<!-- Generator: Adobe Illustrator 25.3.0, SVG Export Plug-In . SVG Version: 6.00 Build 0)  -->
<svg version="1.1" id="Layer_3_copy_2" xmlns="http://www.w3.org/2000/svg" xmlns:xlink="http://www.w3.org/1999/xlink" x="0px"
	 y="0px" viewBox="0 0 20 20" style="enable-background:new 0 0 20 20;" xml:space="preserve">
<path d="M14.9766,16.8662c-0.2297-0.0004-0.4738-0.0313-0.7174-0.0622c0.1185-0.3215,0.2455-0.8838-0.0549-1.4009
	c-0.4508-0.7759-2.1228-1.88-2.1228-1.88s0.1313,1.9993,0.5822,2.7752c0.028,0.0482,0.0639,0.0848,0.096,0.1273
	c-0.0165,0.0004-0.0327,0.0002-0.0494,0.0013c-0.4331-0.1526-0.8642-0.3471-1.2907-0.5771
	c0.1401-0.1953,0.4985-0.7795,0.2726-1.4072c-0.2766-0.7681-1.5923-2.0297-1.5923-2.0297s-0.2095,1.8108,0.0671,2.5789
	c0.0115,0.032,0.03,0.0569,0.0436,0.0868c-0.5127-0.3877-0.9818-0.8376-1.4033-1.3376c0.1925-0.1027,0.716-0.4324,0.7844-1.0309
	c0.0837-0.7335-0.477-2.2837-0.477-2.2837s-0.8958,1.3839-0.9796,2.1174c-0.011,0.0959-0.0078,0.1874,0.0042,0.2748
	c-0.1157-0.1874-0.235-0.3722-0.3338-0.5707c-0.0261-0.209-0.1067-0.4545-0.2911-0.6564C7.4886,11.523,7.463,11.4549,7.439,11.3842
	c0.1907-0.0382,0.7005-0.1813,0.9068-0.6561c0.2554-0.5878,0.1826-2.0172,0.1826-2.0172s-1.0945,0.9221-1.35,1.5099
	c-0.0071,0.0165-0.0086,0.0327-0.0147,0.0492C7.0833,9.7689,7.0516,9.2255,7.0917,8.6389c0.121,0.04,0.6057,0.175,0.9901-0.1337
	C8.5211,8.1525,9.0495,7.011,9.0495,7.011s-1.2288,0.2692-1.668,0.6219c-0.0847,0.068-0.1445,0.1479-0.1938,0.2305
	C7.2606,7.428,7.3741,6.9724,7.5323,6.4968C7.7095,6.555,8.0336,6.6217,8.3228,6.4323C8.7397,6.1591,9.3023,5.199,9.3023,5.199
	s-0.923,0.1127-1.3987,0.3417c0.1679-0.3798,0.3637-0.7699,0.5933-1.1721c0.1303,0.0922,0.3945,0.2388,0.6917,0.1487
	c0.4164-0.1262,1.1241-0.7921,1.1241-0.7921S9.3544,3.5641,8.9379,3.6903C8.9163,3.6968,8.9043,3.7129,8.8843,3.7213
	c0.1252-0.1958,0.2651-0.3962,0.4059-0.5969C9.47,3.1334,9.73,3.1102,9.9304,2.9071c0.3265-0.3309,0.6512-1.3169,0.6512-1.3169
	S9.5999,1.9277,9.2734,2.2586C9.0341,2.501,9.0471,2.8382,9.0707,3.0028C8.9772,3.1366,8.8871,3.2692,8.8004,3.4009
	C8.7501,2.9484,8.3588,2.1841,8.3588,2.1841S7.9396,3.0606,7.946,3.4957c0.0053,0.3602,0.2921,0.5788,0.3951,0.6467
	c-0.1096,0.1883-0.213,0.3743-0.3089,0.558C7.9418,4.2343,7.3148,3.3979,7.3148,3.3979S7.0251,4.4129,7.111,4.8777
	C7.1816,5.2595,7.5242,5.442,7.6496,5.4976c-0.1614,0.3701-0.3,0.7314-0.41,1.0806c-0.011-0.0452-0.0204-0.0905-0.04-0.136
	C6.9702,5.9078,5.9807,5.0667,5.9807,5.0667S5.9089,6.3634,6.1384,6.8978c0.1996,0.4651,0.726,0.5839,0.8594,0.607
	c-0.1031,0.5-0.1547,0.974-0.1674,1.4243C6.809,8.8942,6.7919,8.8584,6.7647,8.8249C6.3669,8.3348,5.0848,7.7495,5.0848,7.7495
	s0.309,1.3751,0.7067,1.8652c0.3513,0.4329,0.9474,0.3939,1.0823,0.3789c0.0554,0.4772,0.1529,0.9202,0.281,1.3264
	c-0.6245-0.345-1.6815-0.6059-1.6815-0.6059s0.5914,1.3663,1.1007,1.7966c0.457,0.3861,1.0778,0.2179,1.2015,0.179
	c0.1415,0.2507,0.282,0.5011,0.4495,0.7329c-0.0366-0.0103-0.0691-0.0262-0.108-0.0333c-0.8018-0.1451-2.5496,0.3607-2.5496,0.3607
	s1.4595,1.0864,2.2613,1.2316c0.6401,0.1158,1.1471-0.3106,1.3281-0.4893c0.2783,0.2734,0.5691,0.5289,0.8759,0.7625
	c-0.1223-0.0245-0.2502-0.0381-0.3885-0.0211c-0.8087,0.1-2.3268,1.1028-2.3268,1.1028s1.7167,0.603,2.5254,0.503
	c0.7348-0.0908,1.0981-0.8024,1.159-0.9329c0.4131,0.2421,0.8348,0.4416,1.2596,0.6128c-0.8427,0.2868-2.0001,1.0884-2.0001,1.0884
	s1.7659,0.5764,2.589,0.4559c0.8098-0.1185,1.1605-0.9736,1.1718-1.0016c0.0705,0.0061,0.1204,0.0076,0.1204,0.0076
	s0.0076-0.0145,0.0132-0.0248c0.2802,0.039,0.5581,0.0707,0.821,0.0711V16.8662z"/>
</svg>
