<?xml version="1.0" encoding="utf-8"?>
<!-- Generator: Adobe Illustrator 22.0.0, SVG Export Plug-In . SVG Version: 6.00 Build 0)  -->
<svg version="1.1" xmlns="http://www.w3.org/2000/svg" xmlns:xlink="http://www.w3.org/1999/xlink" x="0px" y="0px"
	 viewBox="0 0 20 20" style="enable-background:new 0 0 20 20;" xml:space="preserve">
<style type="text/css">
	.st0{display:none;}
	.st1{display:inline;}
	
		.st2{display:inline;fill:none;stroke:#000000;stroke-width:0.75;stroke-linecap:round;stroke-linejoin:round;stroke-miterlimit:10;}
</style>
<g id="Layer_2" class="st0">
	<g>
		<path class="st1" d="M9.998,11c-3.8599,0-7,2.4678-7,5.5c0,0.2764,0.2236,0.5,0.5,0.5s0.5-0.2236,0.5-0.5
			c0-2.4814,2.6914-4.5,6-4.5s6,2.0186,6,4.5c0,0.2764,0.2236,0.5,0.5,0.5s0.5-0.2236,0.5-0.5C16.998,13.4678,13.8574,11,9.998,11z"
			/>
		<path class="st1" d="M10,10c1.933,0,3.5-1.567,3.5-3.5S11.933,3,10,3S6.5,4.567,6.5,6.5S8.067,10,10,10z M10,4
			c1.3785,0,2.5,1.1215,2.5,2.5S11.3785,9,10,9S7.5,7.8785,7.5,6.5S8.6215,4,10,4z"/>
	</g>
	<g>
		<path class="st1" d="M7.998,8c2.2056,0,4,1.7944,4,4s-1.7944,4-4,4s-4-1.7944-4-4S5.7924,8,7.998,8 M7.998,7
			c-2.7614,0-5,2.2386-5,5s2.2386,5,5,5s5-2.2386,5-5S10.7595,7,7.998,7L7.998,7z"/>
	</g>
	<g>
		<circle class="st1" cx="9.998" cy="10" r="3"/>
	</g>
	<g class="st1">
		<path d="M7.3506,7.3552C7.1226,7.8592,6.998,8.4168,6.998,9c0,2.2056,1.7944,4,4,4c0.5832,0,1.1408-0.1245,1.6448-0.3526
			C12.0139,14.0336,10.6167,15,8.998,15c-2.2056,0-4-1.7944-4-4C4.998,9.3813,5.9645,7.9841,7.3506,7.3552 M8.998,6
			c-2.7614,0-5,2.2386-5,5s2.2386,5,5,5s5-2.2386,5-5c0-0.3924-0.0559-0.7698-0.1414-1.1362C13.4838,11.0966,12.3525,12,10.998,12
			c-1.6569,0-3-1.3431-3-3c0-1.3544,0.9034-2.4858,2.1362-2.8586C9.7678,6.0559,9.3904,6,8.998,6L8.998,6z"/>
	</g>
	<g>
		<path class="st1" d="M13.998,5c-0.5523,0-1,0.4477-1,1s0.4477,1,1,1s1-0.4477,1-1S14.5503,5,13.998,5L13.998,5z"/>
	</g>
	<g>
		<path class="st1" d="M17.2015,11.9469c0,0-4.8839,4.4363-5.1187,4.4363c-0.0048,0-0.0076-0.0018-0.0085-0.0055
			c0,0-0.6964,0.3118-0.6964,0.6964c0,0.3846,0.3118,0.6964,0.6964,0.6964c0.3846,0,0.6964-0.6964,0.6964-0.6964
			C12.5793,17.0559,17.2015,11.9469,17.2015,11.9469L17.2015,11.9469z"/>
	</g>
	<polygon class="st2" points="13.998,3.9241 14.4702,5.3772 15.998,5.3772 14.762,6.2752 15.2341,7.7283 13.998,6.8303 
		12.762,7.7283 13.2341,6.2752 11.998,5.3772 13.5259,5.3772 	"/>
</g>
<g id="Layer_2_copy">
	<path d="M10.998,12c-1.6569,0-3-1.3431-3-3c0-1.3544,0.9034-2.4858,2.1362-2.8586C9.7678,6.0559,9.3904,6,8.998,6
		c-2.7614,0-5,2.2386-5,5s2.2386,5,5,5s5-2.2386,5-5c0-0.3924-0.0559-0.7698-0.1414-1.1362C13.4838,11.0966,12.3525,12,10.998,12z
		 M8.998,15c-2.2056,0-4-1.7944-4-4c0-1.6187,0.9664-3.0159,2.3526-3.6448C7.1226,7.8592,6.998,8.4168,6.998,9
		c0,2.2056,1.7944,4,4,4c0.5832,0,1.1408-0.1245,1.6448-0.3526C12.0139,14.0336,10.6167,15,8.998,15z"/>
	<path d="M16.3545,5.2612C16.3047,5.1064,16.1602,5.002,15.998,5.002h-1.2559l-0.3877-1.1934c-0.0996-0.3096-0.6133-0.3096-0.7129,0
		L13.2539,5.002H11.998c-0.1621,0-0.3066,0.1045-0.3564,0.2593c-0.0508,0.1543,0.0049,0.3237,0.1357,0.4189l1.0166,0.7383
		l-0.3887,1.1938c-0.0508,0.1548,0.0049,0.3242,0.1357,0.4194c0.1328,0.0957,0.3086,0.0957,0.4414,0l1.0156-0.7383l1.0156,0.7383
		c0.0664,0.0479,0.1436,0.0718,0.2207,0.0718s0.1543-0.0239,0.2207-0.0718c0.1309-0.0952,0.1865-0.2646,0.1357-0.4194
		l-0.3887-1.1938l1.0166-0.7383C16.3496,5.585,16.4053,5.4155,16.3545,5.2612z M14.541,5.9722
		c-0.1309,0.0952-0.1865,0.2646-0.1357,0.4194l0.1152,0.3545l-0.3018-0.2192c-0.0664-0.0479-0.1436-0.0718-0.2207-0.0718
		s-0.1543,0.0239-0.2207,0.0718l-0.3018,0.2192l0.1152-0.3545c0.0508-0.1548-0.0049-0.3242-0.1357-0.4194L13.1523,5.752h0.374
		c0.1621,0,0.3066-0.1045,0.3564-0.2593l0.1152-0.354l0.1152,0.354c0.0498,0.1548,0.1943,0.2593,0.3564,0.2593h0.374L14.541,5.9722z
		"/>
</g>
</svg>
