<?xml version="1.0" encoding="utf-8"?>
<!-- Generator: Adobe Illustrator 22.0.0, SVG Export Plug-In . SVG Version: 6.00 Build 0)  -->
<svg version="1.1" id="Layer_1" xmlns="http://www.w3.org/2000/svg" xmlns:xlink="http://www.w3.org/1999/xlink" x="0px" y="0px"
	 viewBox="0 0 20 20" style="enable-background:new 0 0 20 20;" xml:space="preserve">
<g>
	<path d="M3.474,3.3961C2.6496,4.2194,1.8213,5.0395,1,5.8658v10.738h15.4913c0.8384-0.8314,1.675-1.6652,2.5087-2.5017V3.3961
		H3.474z M10.5903,14.7961c-0.3947,0.1819-0.7882,0.3651-1.1832,0.5463c-0.3362-0.5548-0.671-1.1108-1.0084-1.6649
		c-0.4562,0.0748-0.923,0.069-1.3815,0.0183C6.4678,13.63,5.9079,13.4625,5.484,13.0927c-0.3257-0.2821-0.5302-0.6768-0.6701-1.0781
		c-0.2291-0.6787-0.2906-1.401-0.3011-2.1132C4.5073,9.1315,4.5563,8.3496,4.7886,7.6109c0.1796-0.5556,0.4769-1.11,0.9791-1.4357
		c0.5895-0.39,1.3185-0.4886,2.0116-0.4823C8.4392,5.701,9.132,5.8167,9.679,6.2106c0.3974,0.2794,0.6557,0.7106,0.8279,1.1567
		c0.2786,0.7325,0.3604,1.5234,0.3698,2.3018c0.0012,0.7839-0.0343,1.585-0.2938,2.3318c-0.1738,0.5081-0.5046,0.9592-0.9409,1.2725
		C9.956,13.7823,10.2762,14.2872,10.5903,14.7961z M13.674,11.5393c0.0101,0.2451,0.0047,0.5038,0.1126,0.7302
		c0.0787,0.1746,0.2906,0.2194,0.4633,0.2252c0.3253-0.0012,0.6503-0.0203,0.9756-0.0261c0.0198,0.3257,0.0389,0.6518,0.0577,0.9775
		c-0.6472,0.1087-1.3262,0.2388-1.9691,0.0355c-0.2708-0.0803-0.5233-0.2599-0.6331-0.5275
		c-0.1968-0.4555-0.2127-0.9623-0.2213-1.4514c-0.0008-0.8832,0-1.7661-0.0004-2.6494c-0.2879-0.0007-0.5759,0.0004-0.8638-0.0007
		c-0.0008-0.3542-0.0008-0.7087,0-1.0633c0.2879-0.0012,0.5754,0.0004,0.8633-0.0007c0.0012-0.5463-0.0004-1.0921,0.0008-1.6383
		c0.413-0.0004,0.826-0.0004,1.239,0c0.0012,0.5462-0.0004,1.092,0.0008,1.6383c0.528,0.0007,1.0558,0,1.5838,0.0004
		c-0.009,0.3546-0.0187,0.7091-0.0289,1.0637c-0.5275,0.0012-1.0547-0.0004-1.5822,0.0007
		C13.6732,9.7487,13.6694,10.644,13.674,11.5393z"/>
	<path d="M9.1612,7.5875c-0.1379-0.3016-0.399-0.5396-0.7064-0.6612C8.0753,6.7748,7.6545,6.7607,7.2537,6.813
		C6.942,6.857,6.6295,6.9747,6.4051,7.2026C6.1472,7.4687,6.0201,7.8311,5.9329,8.184c-0.212,0.9359-0.1746,1.9099-0.0195,2.8511
		c0.0514,0.2969,0.1246,0.5934,0.2579,0.8649c0.1099,0.2268,0.298,0.4119,0.5197,0.5299c0.3799,0.1991,0.8236,0.2299,1.2444,0.1991
		c0.399-0.0312,0.8147-0.1644,1.0843-0.475c0.2657-0.3093,0.3573-0.7227,0.4216-1.1151c0.0916-0.6592,0.0978-1.3286,0.0534-1.9917
		C9.4538,8.5491,9.3727,8.0446,9.1612,7.5875z"/>
</g>
</svg>
