<svg xmlns="http://www.w3.org/2000/svg" viewBox="0 0 13.00702 13.00068"><title>reload-20px</title><path d="M16.03687,7.79279a.47382.47382,0,0,0,.02172-.06611L16.5,4.41711a.50046.50046,0,0,0-.99219-.13183l-.25128,1.88391a6.49907,6.49907,0,0,0-11.318,1.49792,6.306,6.306,0,0,0,.126,4.93262,6.61494,6.61494,0,0,0,5.97315,3.90039,6.16943,6.16943,0,0,0,2.57178-.55957,5.65506,5.65506,0,0,0,1.7871-1.13574.49995.49995,0,0,0-.707-.707,4.77626,4.77626,0,0,1-1.48437.92773,5.50148,5.50148,0,0,1-7.23145-2.84179,5.31575,5.31575,0,0,1-.10254-4.15625,5.47814,5.47814,0,0,1,9.82441-.84815L12.169,7.234a.50006.50006,0,0,0,.01074,1h.01074l3.38281-.07324c.016-.00037.0293-.0083.04486-.01007a.49492.49492,0,0,0,.13477-.03022.48146.48146,0,0,0,.0639-.03827.4958.4958,0,0,0,.08856-.06262.44319.44319,0,0,0,.13154-.2268Z" transform="translate(-3.49734 -3.49944)"/></svg>