<?xml version="1.0" encoding="utf-8"?>
<!-- Generator: Adobe Illustrator 22.0.0, SVG Export Plug-In . SVG Version: 6.00 Build 0)  -->
<svg version="1.1" id="Layer_1" xmlns="http://www.w3.org/2000/svg" xmlns:xlink="http://www.w3.org/1999/xlink" x="0px" y="0px"
	 viewBox="0 0 20 20" style="enable-background:new 0 0 20 20;" xml:space="preserve">
<path d="M15.5806,8.0362c0.007-0.0248,0.0198-0.0468,0.0229-0.0733l0.3652-3.0103c0.0332-0.2739-0.1621-0.5229-0.4355-0.5566
	c-0.2686-0.0283-0.5234,0.1616-0.5566,0.4365l-0.1967,1.621c-1.6238-2.2022-4.5812-3.0545-7.1832-1.9267
	C6.124,5.165,4.9492,6.4033,4.3721,7.9233C3.8086,9.4092,3.8589,11,4.5142,12.4033c0.6787,1.4551,1.8584,2.582,3.3218,3.1719
	c0.707,0.2861,1.4399,0.4277,2.1694,0.4277c0.8159,0,1.6274-0.1777,2.3921-0.5352c0.5732-0.2861,1.166-0.582,1.5898-1.0059
	c0.1953-0.1953,0.1953-0.5117,0-0.707s-0.5117-0.1953-0.707,0c-0.3086,0.3086-0.8281,0.5674-1.3184,0.8125
	c-1.1812,0.5527-2.5151,0.5801-3.7515,0.0811c-1.228-0.4961-2.2188-1.4434-2.79-2.668c-0.54-1.1563-0.5801-2.4712-0.1133-3.7021
	c0.4814-1.2695,1.4609-2.3022,2.687-2.8335c2.2968-0.9975,4.9077-0.1252,6.1953,1.958h-2.1836c-0.2764,0-0.5,0.2236-0.5,0.5
	s0.2236,0.5,0.5,0.5h3.1016c0.0001,0,0.0001-0.0001,0.0002-0.0001c0.0002,0,0.0005,0.0001,0.0008,0.0001
	c0.0654,0,0.1277-0.0142,0.1858-0.0377c0.0203-0.0082,0.0361-0.0226,0.0549-0.0333c0.0351-0.0198,0.0699-0.0392,0.0992-0.0668
	c0.0184-0.0174,0.0309-0.0389,0.0466-0.0588c0.0225-0.0286,0.0446-0.0563,0.0604-0.0897
	C15.5675,8.0912,15.5728,8.0637,15.5806,8.0362z"/>
</svg>
