<?xml version="1.0" encoding="utf-8"?>
<!-- Generator: Adobe Illustrator 22.0.0, SVG Export Plug-In . SVG Version: 6.00 Build 0)  -->
<svg version="1.1" id="Layer_1" xmlns="http://www.w3.org/2000/svg" xmlns:xlink="http://www.w3.org/1999/xlink" x="0px" y="0px"
	 viewBox="0 0 20 20" style="enable-background:new 0 0 20 20;" xml:space="preserve">
<path d="M15.0522,8.254c0.007-0.0248,0.0198-0.0468,0.0229-0.0733l0.3271-2.7002c0.0332-0.2739-0.1621-0.5234-0.4355-0.5566
	c-0.2676-0.0298-0.5234,0.1616-0.5566,0.4365l-0.1599,1.3196c-1.4866-1.91-4.1042-2.6378-6.4153-1.6365
	C6.502,5.6211,5.438,6.7417,4.916,8.1182c-0.5107,1.3457-0.4648,2.7876,0.1284,4.0596c0.9512,2.0381,2.9399,3.25,4.9824,3.25
	c0.7271,0,1.4614-0.1533,2.1577-0.4785c0.5166-0.2578,1.0508-0.5244,1.4385-0.9121c0.1953-0.1953,0.1953-0.5117,0-0.707
	s-0.5117-0.1953-0.707,0c-0.2725,0.2725-0.7334,0.502-1.167,0.7188c-2.1367,0.9971-4.7412-0.0303-5.7983-2.2949
	C5.4722,10.7295,5.437,9.564,5.8511,8.4731c0.4268-1.1255,1.2949-2.041,2.3813-2.5117c2.0094-0.8723,4.2881-0.1324,5.4453,1.6592
	h-1.8809c-0.2764,0-0.5,0.2236-0.5,0.5s0.2236,0.5,0.5,0.5h2.7822c0.0001,0,0.0001-0.0001,0.0002-0.0001
	c0.0002,0,0.0005,0.0001,0.0008,0.0001c0.0654,0,0.1277-0.0142,0.1858-0.0377c0.0203-0.0082,0.0361-0.0226,0.0549-0.0333
	c0.0351-0.0198,0.0699-0.0392,0.0992-0.0668c0.0184-0.0174,0.0309-0.0389,0.0466-0.0588c0.0225-0.0286,0.0446-0.0563,0.0604-0.0897
	C15.0392,8.309,15.0445,8.2815,15.0522,8.254z"/>
</svg>
