<?xml version="1.0" encoding="utf-8"?>
<!-- Generator: Adobe Illustrator 22.0.0, SVG Export Plug-In . SVG Version: 6.00 Build 0)  -->
<svg version="1.1" id="Layer_1" xmlns="http://www.w3.org/2000/svg" xmlns:xlink="http://www.w3.org/1999/xlink" x="0px" y="0px"
	 viewBox="0 0 20 20" style="enable-background:new 0 0 20 20;" xml:space="preserve">
<path d="M17.0537,16.3468l-4.9004-4.9004c-0.0147-0.0147-0.0338-0.0206-0.0497-0.033c0.7092-0.8631,1.1525-1.9531,1.1525-3.1573
	c0-2.7614-2.2386-5-5-5s-5,2.2386-5,5s2.2386,5,5,5c1.2042,0,2.2941-0.4432,3.1572-1.1523c0.0125,0.0159,0.0183,0.035,0.033,0.0497
	l4.9004,4.9004c0.0977,0.0977,0.2256,0.1465,0.3535,0.1465s0.2559-0.0488,0.3535-0.1465
	C17.249,16.8585,17.249,16.5421,17.0537,16.3468z M8.256,12.256c-2.2056,0-4-1.7944-4-4s1.7944-4,4-4s4,1.7944,4,4
	S10.4617,12.256,8.256,12.256z"/>
</svg>
