<?xml version="1.0" encoding="utf-8"?>
<!-- Generator: Adobe Illustrator 22.0.0, SVG Export Plug-In . SVG Version: 6.00 Build 0)  -->
<svg version="1.1" id="Layer_2" xmlns="http://www.w3.org/2000/svg" xmlns:xlink="http://www.w3.org/1999/xlink" x="0px" y="0px"
	 viewBox="0 0 20 20" style="enable-background:new 0 0 20 20;" xml:space="preserve">
<g>
	<path d="M9.998,11c-3.8599,0-7,2.4678-7,5.5c0,0.2764,0.2236,0.5,0.5,0.5s0.5-0.2236,0.5-0.5c0-2.4814,2.6914-4.5,6-4.5
		s6,2.0186,6,4.5c0,0.2764,0.2236,0.5,0.5,0.5s0.5-0.2236,0.5-0.5C16.998,13.4678,13.8574,11,9.998,11z"/>
	<path d="M10,10c1.933,0,3.5-1.567,3.5-3.5S11.933,3,10,3S6.5,4.567,6.5,6.5S8.067,10,10,10z M10,4c1.3785,0,2.5,1.1215,2.5,2.5
		S11.3785,9,10,9S7.5,7.8785,7.5,6.5S8.6215,4,10,4z"/>
</g>
</svg>
