<?xml version="1.0" encoding="utf-8"?>
<!-- Generator: Adobe Illustrator 25.3.0, SVG Export Plug-In . SVG Version: 6.00 Build 0)  -->
<svg version="1.1" id="Layer_3_copy_2" xmlns="http://www.w3.org/2000/svg" xmlns:xlink="http://www.w3.org/1999/xlink" x="0px"
	 y="0px" viewBox="0 0 20 20" style="enable-background:new 0 0 20 20;" xml:space="preserve">
<path d="M17.916,11.2227l-2-3C15.8232,8.0835,15.667,8,15.5,8h-2.3365l-2.7197-5.2305c-0.1729-0.3311-0.7148-0.3311-0.8877,0
	L6.8363,8H4.5C4.333,8,4.1768,8.0835,4.084,8.2227l-2,3c-0.1021,0.1533-0.1118,0.3506-0.0249,0.5137C2.146,11.8984,2.3154,12,2.5,12
	h2.2563l-1.7001,3.2695c-0.0806,0.1553-0.0742,0.3408,0.0166,0.4902C3.1631,15.9092,3.3252,16,3.5,16h13
	c0.1748,0,0.3369-0.0908,0.4277-0.2402c0.0898-0.1494,0.0967-0.335,0.0156-0.4902L15.2433,12H17.5
	c0.1846,0,0.3535-0.1016,0.4404-0.2637C18.0283,11.5732,18.0186,11.376,17.916,11.2227z M10,4.084L12.0365,8H7.9637L10,4.084z
	 M12.5565,9l1.0401,2H6.4037l1.04-2H12.5565z M3.4341,11l1.3335-2h1.5487l-1.04,2H3.4341z M15.6768,15H4.3237l1.56-3h8.2329
	L15.6768,15z M14.7234,11l-1.0399-2h1.549l1.333,2H14.7234z"/>
</svg>
