<?xml version="1.0" encoding="utf-8"?>
<!-- Generator: Adobe Illustrator 25.3.0, SVG Export Plug-In . SVG Version: 6.00 Build 0)  -->
<svg version="1.1" id="Layer_1" xmlns="http://www.w3.org/2000/svg" xmlns:xlink="http://www.w3.org/1999/xlink" x="0px" y="0px"
	 viewBox="0 0 20 20" style="enable-background:new 0 0 20 20;" xml:space="preserve">
<path d="M17.5,15.958h-15c-0.165,0-0.3174-0.0879-0.3989-0.2324c-0.0815-0.1436-0.0791-0.3203,0.0059-0.4619l7.5-12.4995
	c0.166-0.2764,0.6201-0.2764,0.7861,0l7.5005,12.4995c0.085,0.1416,0.0869,0.3184,0.0059,0.4619
	C17.8174,15.8701,17.665,15.958,17.5,15.958z M3.3096,15.042h13.3809L10,3.8911L3.3096,15.042z"/>
<circle cx="10" cy="13" r="1"/>
<path d="M9.5,11L9.1368,7C9.0936,6.5233,9.4449,6.1018,9.9216,6.0585c0.4767-0.0433,0.8982,0.3081,0.9415,0.7848
	c0.0047,0.0514,0.0042,0.107,0,0.1567L10.5,11c-0.0251,0.2761-0.2693,0.4797-0.5454,0.4546C9.7093,11.4323,9.5213,11.2369,9.5,11z"
	/>
</svg>
