<?xml version="1.0" encoding="utf-8"?>
<!-- Generator: Adobe Illustrator 25.3.0, SVG Export Plug-In . SVG Version: 6.00 Build 0)  -->
<svg version="1.1" id="Layer_1" xmlns="http://www.w3.org/2000/svg" xmlns:xlink="http://www.w3.org/1999/xlink" x="0px" y="0px"
	 viewBox="0 0 20 20" style="enable-background:new 0 0 20 20;" xml:space="preserve">
<circle cx="10" cy="13" r="1"/>
<path d="M9.5,11L9.1368,7C9.0936,6.5233,9.4449,6.1018,9.9216,6.0585c0.4767-0.0433,0.8982,0.3081,0.9415,0.7848
	c0.0047,0.0514,0.0042,0.107,0,0.1567L10.5,11c-0.0251,0.2761-0.2693,0.4797-0.5454,0.4546C9.7093,11.4323,9.5213,11.2369,9.5,11z"
	/>
<path d="M10,16.9258c-3.8188,0-6.9258-3.1064-6.9258-6.9258c0-3.8188,3.1069-6.9258,6.9258-6.9258
	c3.8193,0,6.9258,3.1069,6.9258,6.9258C16.9258,13.8193,13.8193,16.9258,10,16.9258z M10,3.9258
	c-3.3491,0-6.0742,2.7251-6.0742,6.0742c0,3.3496,2.7251,6.0742,6.0742,6.0742c3.3496,0,6.0742-2.7246,6.0742-6.0742
	C16.0742,6.6509,13.3496,3.9258,10,3.9258z"/>
</svg>
